<?xml version="1.0" encoding="utf-8"?>
<!-- Generator: Adobe Illustrator 24.1.3, SVG Export Plug-In . SVG Version: 6.00 Build 0)  -->
<svg version="1.1" id="Calque_1" focusable="false" xmlns="http://www.w3.org/2000/svg" xmlns:xlink="http://www.w3.org/1999/xlink"
	 x="0px" y="0px" viewBox="0 0 512 512" style="enable-background:new 0 0 512 512;" xml:space="preserve">
<style type="text/css">
	.st0{fill:#CCCCCC;}
	.st1{fill:#0065FC;}
</style>
<path class="st0" d="M256,8.1C119,8.1,8.1,119.1,8.1,256.1S119,504,256,504s247.9-111,247.9-247.9S393,8.1,256,8.1z M256,456
	c-110.5,0-199.9-89.5-199.9-199.9S145.5,56.1,256,56.1s199.9,89.5,199.9,199.9S366.5,456,256,456z"/>
<path class="st1" d="M218.6,356.4h11.9v-86.2h-11.9c-6.6,0-11.9-5.3-11.9-11.9v-28.5c0-6.6,5.3-11.9,11.9-11.9h66.9
	c6.6,0,11.9,5.3,11.9,11.9v126.7h11.9c6.6,0,11.9,5.3,11.9,11.9v28.5c0,6.6-5.3,11.9-11.9,11.9h-90.7c-6.6,0-11.9-5.3-11.9-11.9
	v-28.5C206.7,361.8,212,356.4,218.6,356.4z M264,103.2c-23.7,0-43,19.2-43,43s19.2,43,43,43c23.7,0,43-19.2,43-43
	S287.7,103.2,264,103.2z"/>
</svg>
